<svg width="113" height="54" viewBox="0 0 113 54" fill="none" xmlns="http://www.w3.org/2000/svg">
<path d="M44.552 22.872V36H39.392V34.752C38.912 35.248 38.352 35.624 37.712 35.88C37.072 36.12 36.392 36.24 35.672 36.24C34.008 36.24 32.672 35.736 31.664 34.728C30.656 33.704 30.152 32.168 30.152 30.12V22.872H35.576V29.184C35.576 30.08 35.72 30.72 36.008 31.104C36.296 31.488 36.72 31.68 37.28 31.68C37.808 31.68 38.248 31.472 38.6 31.056C38.952 30.624 39.128 29.952 39.128 29.04V22.872H44.552ZM61.6218 22.872V33.384C61.6218 35.88 60.9258 37.752 59.5338 39C58.1578 40.264 56.1898 40.896 53.6298 40.896C52.3178 40.896 51.0938 40.752 49.9578 40.464C48.8218 40.192 47.8538 39.792 47.0538 39.264L48.8778 35.568C49.3898 35.952 50.0378 36.264 50.8218 36.504C51.6058 36.744 52.3578 36.864 53.0778 36.864C54.1658 36.864 54.9578 36.632 55.4538 36.168C55.9498 35.704 56.1978 35.024 56.1978 34.128V33.888C55.3818 34.816 54.1738 35.28 52.5738 35.28C51.4538 35.28 50.4058 35.024 49.4298 34.512C48.4698 33.984 47.7018 33.24 47.1258 32.28C46.5498 31.304 46.2618 30.192 46.2618 28.944C46.2618 27.696 46.5498 26.592 47.1258 25.632C47.7018 24.672 48.4698 23.936 49.4298 23.424C50.4058 22.896 51.4538 22.632 52.5738 22.632C54.3658 22.632 55.6618 23.208 56.4618 24.36V22.872H61.6218ZM54.0138 31.056C54.6538 31.056 55.1818 30.864 55.5978 30.48C56.0298 30.08 56.2458 29.568 56.2458 28.944C56.2458 28.32 56.0298 27.816 55.5978 27.432C55.1818 27.048 54.6538 26.856 54.0138 26.856C53.3578 26.856 52.8138 27.048 52.3818 27.432C51.9658 27.816 51.7578 28.32 51.7578 28.944C51.7578 29.568 51.9738 30.08 52.4058 30.48C52.8378 30.864 53.3738 31.056 54.0138 31.056ZM70.9563 36.24C69.5003 36.24 68.1883 35.952 67.0203 35.376C65.8683 34.784 64.9643 33.976 64.3083 32.952C63.6523 31.912 63.3243 30.736 63.3243 29.424C63.3243 28.112 63.6523 26.944 64.3083 25.92C64.9643 24.88 65.8683 24.072 67.0203 23.496C68.1883 22.92 69.5003 22.632 70.9563 22.632C72.4283 22.632 73.7403 22.92 74.8923 23.496C76.0603 24.072 76.9643 24.88 77.6043 25.92C78.2603 26.944 78.5883 28.112 78.5883 29.424C78.5883 30.736 78.2603 31.912 77.6043 32.952C76.9643 33.976 76.0603 34.784 74.8923 35.376C73.7403 35.952 72.4283 36.24 70.9563 36.24ZM70.9563 32.016C71.5803 32.016 72.0923 31.792 72.4923 31.344C72.8923 30.88 73.0923 30.24 73.0923 29.424C73.0923 28.608 72.8923 27.976 72.4923 27.528C72.0923 27.08 71.5803 26.856 70.9563 26.856C70.3323 26.856 69.8203 27.08 69.4203 27.528C69.0203 27.976 68.8203 28.608 68.8203 29.424C68.8203 30.24 69.0203 30.88 69.4203 31.344C69.8203 31.792 70.3323 32.016 70.9563 32.016ZM86.5739 31.968L85.7099 32.904V36H80.2859V18.192H85.7099V26.688L89.4779 22.872H95.8859L90.4619 28.56L96.3179 36H89.7659L86.5739 31.968ZM111.513 22.872V36H106.353V34.752C105.873 35.248 105.313 35.624 104.673 35.88C104.033 36.12 103.353 36.24 102.633 36.24C100.969 36.24 99.6329 35.736 98.6249 34.728C97.6169 33.704 97.1129 32.168 97.1129 30.12V22.872H102.537V29.184C102.537 30.08 102.681 30.72 102.969 31.104C103.257 31.488 103.681 31.68 104.241 31.68C104.769 31.68 105.209 31.472 105.561 31.056C105.913 30.624 106.089 29.952 106.089 29.04V22.872H111.513Z" fill="black"/>
<path d="M13.5462 39.3564L12.4268 39.4686L9.84525 13.7227L22.2362 12.4803L22.3485 13.5996L11.0769 14.7298L11.1891 15.8492L22.4607 14.719L22.573 15.8384L11.3014 16.9686L11.4136 18.088L22.6852 16.9578L22.7974 18.0772L11.5258 19.2074L12.087 24.8043L22.83 23.7271L22.9423 24.8465L12.1993 25.9237L12.3115 27.0431L23.0545 25.9659L23.1668 27.0853L12.4238 28.1625L12.536 29.2819L23.279 28.2047L23.3912 29.3241L12.6482 30.4013L13.5462 39.3564ZM11.3074 39.5808L10.188 39.6931L7.60648 13.9472L8.72586 13.8349L11.3074 39.5808ZM9.06862 39.8053L7.94923 39.9176L5.3677 14.1717L6.48709 14.0594L9.06862 39.8053ZM6.82984 40.0298L5.71046 40.142L3.12893 14.3961L4.24831 14.2839L6.82984 40.0298Z" fill="#1E3A8A"/>
</svg>
